<svg width="769" height="363" viewBox="0 0 769 363" fill="none" xmlns="http://www.w3.org/2000/svg">
<path d="M15.3503 291H74.1571V195.545C74.1571 181.27 81.6145 172.534 93.7594 172.534C105.904 172.534 113.788 181.27 113.788 195.545V291H170.038V195.545C170.038 181.27 177.495 172.534 189.64 172.534C201.785 172.534 209.669 181.27 209.669 195.545V291H268.475V180.631C268.475 147.072 246.955 125.233 215.634 125.233C191.345 125.233 171.742 138.443 166.203 158.472H164.498C161.089 138.443 142.765 125.233 119.754 125.233C97.062 125.233 79.6969 138.017 72.8787 158.472H71.1742V127.364H15.3503V291ZM271.979 291H330.786V244.551L339.628 233.365L372.974 291H440.303L382.988 199.061L438.599 127.364H372.547L332.917 182.335H330.786V72.8182H271.979V291ZM480.907 293.131C503.919 293.131 519.686 280.773 526.504 264.153H527.782V291H586.163V72.8182H527.356V155.915H526.504C520.112 139.295 504.771 125.233 480.481 125.233C448.095 125.233 416.561 149.949 416.561 209.182C416.561 265.858 445.964 293.131 480.907 293.131ZM502.64 247.96C486.447 247.96 477.072 233.472 477.072 209.182C477.072 184.892 486.447 170.403 502.64 170.403C518.834 170.403 528.635 184.892 528.635 209.182C528.635 233.045 518.834 247.96 502.64 247.96ZM648.341 198.955C648.447 182.761 657.609 172.96 672.204 172.96C687.013 172.96 695.748 182.761 695.642 198.955V291H754.449V186.597C754.555 151.014 732.077 125.233 697.346 125.233C673.27 125.233 654.2 137.804 647.062 158.472H645.358V127.364H589.534V291H648.341V198.955Z" fill="black"/>
<rect x="15" y="286" width="740" height="47" fill="black"/>
</svg>
